<?xml version="1.0" encoding="utf-8"?>
<!-- Generator: Adobe Illustrator 26.5.0, SVG Export Plug-In . SVG Version: 6.00 Build 0)  -->
<svg version="1.1" id="Capa_1" xmlns="http://www.w3.org/2000/svg" xmlns:xlink="http://www.w3.org/1999/xlink" x="0px" y="0px"
	 viewBox="0 0 512 512" style="enable-background:new 0 0 512 512;" xml:space="preserve">
<style type="text/css">
	.st0{fill:#CC3333;}
	.st1{fill:#6600FF;}
	.st2{fill:#339933;}
	.st3{fill:#A360FF;}
	.st4{fill:#7900FF;}
	.st5{fill:#999999;}
	.st6{fill:#FFFFFF;}
	.st7{fill:#CCCCCC;}
	.st8{fill:#666666;}
	.st9{fill:#914DFD;}
	.st10{fill:#A166FD;}
	.st11{fill:#D1B0FF;}
	.st12{fill:#E0CCFF;}
	.st13{fill:#A366FF;}
	.st14{fill:#944DFF;}
	.st15{fill:#F2F2F2;}
	.st16{clip-path:url(#SVGID_00000023245157087685211140000015983771498367148182_);}
	.st17{clip-path:url(#SVGID_00000074412019312243123100000005713305736028809901_);}
	.st18{clip-path:url(#SVGID_00000178189004849036314930000002337836170562472066_);}
	.st19{clip-path:url(#SVGID_00000154410311713245454060000009486338184494696578_);}
	.st20{clip-path:url(#SVGID_00000103944956720112818480000006171389959223395743_);}
	.st21{clip-path:url(#SVGID_00000083787075800797074480000007497403889720874419_);}
	.st22{clip-path:url(#SVGID_00000180359716475828282520000012202096032692499106_);}
	.st23{clip-path:url(#SVGID_00000056412645683251161570000018286479965728307383_);}
	.st24{clip-path:url(#SVGID_00000080207582826087273710000015688522815903492018_);}
	.st25{clip-path:url(#SVGID_00000121983607524403083530000016808843742859552940_);}
	.st26{clip-path:url(#SVGID_00000115489157073913653440000015976785160562641033_);}
	.st27{clip-path:url(#SVGID_00000052810766675282790330000001426101225599449023_);}
	.st28{clip-path:url(#SVGID_00000163067853089385262660000016102060269938588846_);}
	.st29{clip-path:url(#SVGID_00000122718208406443579020000001892566834918914977_);}
	.st30{clip-path:url(#SVGID_00000091009712376235168560000014782043122446188186_);}
	.st31{clip-path:url(#SVGID_00000153682674007766715360000003246081818312186501_);}
	.st32{clip-path:url(#SVGID_00000171000734584744952490000005316176913951133374_);}
	.st33{clip-path:url(#SVGID_00000029738677025988979790000001573371969064797084_);}
	.st34{clip-path:url(#SVGID_00000163059677756794410990000006234072749836860078_);}
	.st35{clip-path:url(#SVGID_00000023984252355937287020000017188539174939576195_);}
	.st36{clip-path:url(#SVGID_00000162321566513038028340000014136075277038842518_);}
	.st37{clip-path:url(#SVGID_00000162322776202610757980000008315807458278916504_);}
	.st38{clip-path:url(#SVGID_00000127013652795051203390000017726693714607151551_);}
	.st39{clip-path:url(#SVGID_00000002364442277249179640000000709717444037495443_);}
	.st40{clip-path:url(#SVGID_00000178891267558773247440000000582243595167808185_);}
</style>
<g>
	<g>
		<path class="st4" d="M217.1,192.5c-32.2,0-53.9,21.6-53.9,53.7c0,31.6,21.7,53.7,52.8,53.7c14.2,0,26.1-4.7,34.4-13.6v11.8h20.4
			v-51.9C270.8,214.1,249.3,192.5,217.1,192.5z M217.1,212.9c20.1,0,33.1,13.1,33.1,33.3s-13,33.3-33.1,33.3
			c-20.3,0-33.5-13.1-33.5-33.3S196.8,212.9,217.1,212.9z"/>
		<g>
			<path class="st4" d="M416.7,257.9l22.7-64.6l-0.3-0.9h-21.5l0.6,1.8h-0.1l-25.6,70.5l-25.9-72.3h-12.1h-9.4h-5.2
				c-32.1,0-53.7,21.6-53.7,53.7v51.9h20.4v-51.9c0-20.2,13.1-33.3,33.3-33.3h12.5l29.5,82.1l-12.7,35.7h21.5L416.7,257.9
				L416.7,257.9z"/>
			<polygon class="st4" points="490.7,194.3 465,264.8 445.4,209.8 435.1,241 454.5,295 441.7,330.7 463.3,330.7 512,194.3 			"/>
		</g>
	</g>
	<g>
		<path class="st3" d="M48.4,246.8c0-9.4,7.7-17.1,17.1-17.1s17.1,7.7,17.1,17.1c0,9.4-7.7,17.1-17.1,17.1S48.4,256.2,48.4,246.8z"
			/>
		<circle class="st3" cx="25.1" cy="206.4" r="9.1"/>
		<circle class="st4" cx="65.5" cy="198.4" r="17.1"/>
		<circle class="st4" cx="65.5" cy="295.2" r="17.1"/>
		<circle class="st4" cx="17.1" cy="246.8" r="17.1"/>
		<circle class="st4" cx="113.8" cy="246.8" r="17.1"/>
		<g>
			<circle class="st3" cx="104.7" cy="286" r="9.1"/>
		</g>
	</g>
</g>
</svg>
